<svg width="169" height="32" viewBox="0 0 169 32" fill="none" xmlns="http://www.w3.org/2000/svg">
<path d="M93.0831 28H0V13.7145C0 8.35019 4.33168 4 9.67316 4H105L93.0809 28H93.0831ZM8.71887 12.4045L5.18136 24.1858H10.7449L11.8614 20.0951H15.3285V24.1858H20.6828V7.82276H13.9323C10.952 7.82276 9.78844 8.8283 8.71887 12.4045ZM12.9566 16.1222L13.7252 13.365C14.0966 12.01 14.261 11.8213 15.0744 11.8213H15.3306V16.1222H12.9566ZM30.9024 24.6532C32.6957 24.6532 34.5339 24.3016 35.9536 23.7184V14.4627H30.832V20.213H30.5523C28.6907 20.213 27.4567 18.6693 27.4567 16.193C27.4567 13.3178 29.1326 11.9157 31.9251 11.9157C33.6479 11.9157 35.0676 12.4774 35.9749 13.4808V8.12721C34.7645 7.61265 33.0416 7.35537 31.3892 7.35537C25.5247 7.35537 21.7288 10.8372 21.7288 16.3323C21.7288 21.1713 24.9419 24.6532 30.9003 24.6532H30.9024ZM37.3733 24.1858H42.6101V15.8885C45.8915 19.1367 46.9162 21.2421 46.9162 24.1858H51.9204V7.82276H46.6835V13.3393L41.959 7.82276H37.3733V24.1858ZM57.2277 24.1858H62.6973V12.2651H63.2331C64.9325 12.2651 66.2134 12.6382 66.9564 13.4808V7.82491H52.9686V13.4808C53.7137 12.6403 54.9946 12.2651 56.6918 12.2651H57.2277V24.1858ZM67.4239 16.0043C67.4239 21.1242 70.9849 24.6532 76.1065 24.6532C77.5731 24.6532 78.9224 24.3488 79.6675 23.8814V18.5278C79.0846 19.439 78.062 19.9064 76.7811 19.9064C74.5224 19.9064 73.1497 18.4099 73.1497 16.0021C73.1497 13.5944 74.5224 12.0979 76.7811 12.0979C78.062 12.0979 79.0846 12.5653 79.6675 13.4765V8.12292C78.9224 7.65553 77.5731 7.35108 76.1065 7.35108C70.9849 7.35108 67.4239 10.8801 67.4239 16V16.0043ZM82.7865 24.1858H88.6062L96.6825 7.82276H90.818L88.4205 13.2921L86.0465 7.82276H80.135L85.5341 18.8086L82.7887 24.1858H82.7865Z" fill="#187ADC"/>
<path d="M119.72 22.16C118.835 22.16 118.024 22.0053 117.288 21.696C116.563 21.376 115.933 20.944 115.4 20.4C114.877 19.856 114.467 19.2213 114.168 18.496C113.88 17.7707 113.736 16.992 113.736 16.16C113.736 15.3067 113.885 14.5173 114.184 13.792C114.493 13.056 114.915 12.4213 115.448 11.888C115.992 11.344 116.627 10.9227 117.352 10.624C118.077 10.3147 118.867 10.16 119.72 10.16C120.275 10.16 120.808 10.2293 121.32 10.368C121.843 10.5067 122.323 10.704 122.76 10.96C123.208 11.216 123.613 11.5253 123.976 11.888C124.339 12.24 124.648 12.6347 124.904 13.072L122.92 14.32C122.611 13.712 122.184 13.2373 121.64 12.896C121.107 12.544 120.472 12.368 119.736 12.368C119.203 12.368 118.707 12.4693 118.248 12.672C117.8 12.864 117.411 13.1307 117.08 13.472C116.749 13.8133 116.488 14.2187 116.296 14.688C116.115 15.1467 116.024 15.6373 116.024 16.16C116.024 16.672 116.115 17.1573 116.296 17.616C116.477 18.0747 116.733 18.4747 117.064 18.816C117.395 19.1573 117.784 19.4293 118.232 19.632C118.68 19.824 119.171 19.92 119.704 19.92C120.504 19.92 121.181 19.7227 121.736 19.328C122.301 18.9227 122.728 18.4 123.016 17.76L125.08 18.864C124.835 19.3547 124.531 19.8027 124.168 20.208C123.805 20.6133 123.395 20.96 122.936 21.248C122.488 21.536 121.992 21.76 121.448 21.92C120.904 22.08 120.328 22.16 119.72 22.16ZM130.59 22.176C129.939 22.176 129.336 22.0587 128.782 21.824C128.227 21.5893 127.742 21.2693 127.326 20.864C126.92 20.448 126.6 19.968 126.366 19.424C126.142 18.88 126.03 18.2987 126.03 17.68C126.03 17.0613 126.142 16.48 126.366 15.936C126.6 15.3813 126.92 14.9013 127.326 14.496C127.742 14.0907 128.227 13.7707 128.782 13.536C129.336 13.3013 129.939 13.184 130.59 13.184C131.23 13.184 131.827 13.3013 132.382 13.536C132.947 13.7707 133.432 14.0907 133.838 14.496C134.254 14.9013 134.579 15.3813 134.814 15.936C135.048 16.48 135.166 17.0613 135.166 17.68C135.166 18.2987 135.048 18.88 134.814 19.424C134.579 19.968 134.259 20.448 133.854 20.864C133.448 21.2693 132.963 21.5893 132.398 21.824C131.843 22.0587 131.24 22.176 130.59 22.176ZM130.606 20.08C130.936 20.08 131.246 20.016 131.534 19.888C131.822 19.76 132.072 19.5893 132.286 19.376C132.499 19.1627 132.664 18.912 132.782 18.624C132.91 18.3253 132.974 18.0053 132.974 17.664C132.974 17.3333 132.91 17.0187 132.782 16.72C132.664 16.4213 132.499 16.1653 132.286 15.952C132.072 15.7387 131.822 15.568 131.534 15.44C131.246 15.312 130.936 15.248 130.606 15.248C130.275 15.248 129.966 15.312 129.678 15.44C129.39 15.568 129.139 15.7387 128.926 15.952C128.712 16.1653 128.542 16.4213 128.414 16.72C128.296 17.0187 128.238 17.3333 128.238 17.664C128.238 18.0053 128.296 18.3253 128.414 18.624C128.542 18.912 128.712 19.1627 128.926 19.376C129.139 19.5893 129.39 19.76 129.678 19.888C129.966 20.016 130.275 20.08 130.606 20.08ZM135.713 13.36H137.137V13.056C137.137 12.352 137.196 11.7653 137.313 11.296C137.441 10.8267 137.644 10.4533 137.921 10.176C138.209 9.888 138.588 9.68533 139.057 9.568C139.537 9.45067 140.129 9.392 140.833 9.392H141.409V11.408H141.041C140.657 11.408 140.353 11.4293 140.129 11.472C139.905 11.504 139.729 11.5787 139.601 11.696C139.484 11.8027 139.409 11.9573 139.377 12.16C139.345 12.352 139.329 12.6133 139.329 12.944V13.36H141.409V15.344H139.329V22H137.137V15.344H135.713V13.36ZM142.447 13.36H143.871V13.056C143.871 12.352 143.93 11.7653 144.047 11.296C144.175 10.8267 144.378 10.4533 144.655 10.176C144.943 9.888 145.322 9.68533 145.791 9.568C146.271 9.45067 146.863 9.392 147.567 9.392H148.143V11.408H147.775C147.391 11.408 147.087 11.4293 146.863 11.472C146.639 11.504 146.463 11.5787 146.335 11.696C146.218 11.8027 146.143 11.9573 146.111 12.16C146.079 12.352 146.063 12.6133 146.063 12.944V13.36H148.143V15.344H146.063V22H143.871V15.344H142.447V13.36ZM153.231 22.176C152.537 22.176 151.908 22.064 151.343 21.84C150.777 21.6053 150.292 21.2853 149.887 20.88C149.492 20.4747 149.188 20 148.975 19.456C148.761 18.912 148.655 18.3253 148.655 17.696C148.655 17.0667 148.767 16.48 148.991 15.936C149.225 15.3813 149.545 14.9013 149.951 14.496C150.356 14.0907 150.836 13.7707 151.391 13.536C151.945 13.3013 152.543 13.184 153.183 13.184C153.833 13.184 154.431 13.296 154.975 13.52C155.519 13.744 155.988 14.0533 156.383 14.448C156.777 14.832 157.087 15.296 157.311 15.84C157.535 16.384 157.647 16.976 157.647 17.616V18.448H150.783C150.932 19.0133 151.22 19.4613 151.647 19.792C152.084 20.112 152.623 20.272 153.263 20.272C153.775 20.272 154.207 20.1707 154.559 19.968C154.911 19.7547 155.193 19.472 155.407 19.12L157.215 20.176C156.777 20.784 156.244 21.2693 155.615 21.632C154.985 21.9947 154.191 22.176 153.231 22.176ZM153.183 15.056C152.617 15.056 152.132 15.2053 151.727 15.504C151.321 15.8027 151.028 16.208 150.847 16.72H155.455C155.305 16.176 155.033 15.7653 154.639 15.488C154.244 15.2 153.759 15.056 153.183 15.056ZM163.402 22.176C162.709 22.176 162.08 22.064 161.514 21.84C160.949 21.6053 160.464 21.2853 160.058 20.88C159.664 20.4747 159.36 20 159.146 19.456C158.933 18.912 158.826 18.3253 158.826 17.696C158.826 17.0667 158.938 16.48 159.162 15.936C159.397 15.3813 159.717 14.9013 160.122 14.496C160.528 14.0907 161.008 13.7707 161.562 13.536C162.117 13.3013 162.714 13.184 163.354 13.184C164.005 13.184 164.602 13.296 165.146 13.52C165.69 13.744 166.16 14.0533 166.554 14.448C166.949 14.832 167.258 15.296 167.482 15.84C167.706 16.384 167.818 16.976 167.818 17.616V18.448H160.954C161.104 19.0133 161.392 19.4613 161.818 19.792C162.256 20.112 162.794 20.272 163.434 20.272C163.946 20.272 164.378 20.1707 164.73 19.968C165.082 19.7547 165.365 19.472 165.578 19.12L167.386 20.176C166.949 20.784 166.416 21.2693 165.786 21.632C165.157 21.9947 164.362 22.176 163.402 22.176ZM163.354 15.056C162.789 15.056 162.304 15.2053 161.898 15.504C161.493 15.8027 161.2 16.208 161.018 16.72H165.626C165.477 16.176 165.205 15.7653 164.81 15.488C164.416 15.2 163.93 15.056 163.354 15.056Z" fill="#00142B"/>
</svg>
